<svg width="40" height="40" viewBox="0 0 40 40" fill="none" xmlns="http://www.w3.org/2000/svg">
<g clip-path="url(#clip0_4112_12845)">
<path opacity="0.2" d="M13.7501 25C18.2374 25 21.8751 21.3623 21.8751 16.875C21.8751 12.3877 18.2374 8.75 13.7501 8.75C9.26281 8.75 5.62512 12.3877 5.62512 16.875C5.62512 21.3623 9.26281 25 13.7501 25Z" fill="#0A65CC"/>
<path d="M13.7501 25C18.2374 25 21.8751 21.3623 21.8751 16.875C21.8751 12.3877 18.2374 8.75 13.7501 8.75C9.26281 8.75 5.62512 12.3877 5.62512 16.875C5.62512 21.3623 9.26281 25 13.7501 25Z" stroke="#0A65CC" stroke-width="2" stroke-miterlimit="10"/>
<path d="M24.2833 9.05262C25.4009 8.73776 26.5729 8.66603 27.7205 8.84227C28.8681 9.01851 29.9646 9.43862 30.9361 10.0743C31.9077 10.71 32.7317 11.5465 33.3528 12.5275C33.9738 13.5085 34.3774 14.6112 34.5364 15.7613C34.6954 16.9114 34.6061 18.0822 34.2745 19.1949C33.9429 20.3075 33.3767 21.3362 32.614 22.2117C31.8514 23.0871 30.91 23.789 29.8533 24.2699C28.7965 24.7509 27.649 24.9998 26.488 25" stroke="#0A65CC" stroke-width="2" stroke-linecap="round" stroke-linejoin="round"/>
<path d="M2.49927 30.8432C3.76823 29.0382 5.45285 27.565 7.41091 26.548C9.36897 25.531 11.543 25.0001 13.7494 25C15.9558 24.9999 18.1299 25.5307 20.088 26.5476C22.0461 27.5644 23.7309 29.0375 25 30.8424" stroke="#0A65CC" stroke-width="2" stroke-linecap="round" stroke-linejoin="round"/>
<path d="M26.4879 25C28.6945 24.9984 30.8691 25.5285 32.8273 26.5455C34.7856 27.5625 36.4701 29.0364 37.738 30.8424" stroke="#0A65CC" stroke-width="2" stroke-linecap="round" stroke-linejoin="round"/>
</g>
<defs>
<clipPath id="clip0_4112_12845">
<rect width="40" height="40" fill="white"/>
</clipPath>
</defs>
</svg>
